<?xml version="1.0" encoding="UTF-8"?>
<svg xmlns="http://www.w3.org/2000/svg" viewBox="0 0 400 218" width="400" height="218">
  <g transform="scale(0.5) translate(0, 0)">
    <path d="M216.963 45.623 C 216.558 45.664,216.200 45.842,215.931 46.135 C 214.624 47.557,212.764 49.863,211.333 51.833 C 210.434 53.071,209.497 54.271,209.251 54.500 C 209.005 54.729,207.971 56.042,206.953 57.417 C 205.935 58.792,204.423 60.749,203.593 61.767 C 202.762 62.784,201.604 64.274,201.019 65.078 C 200.433 65.882,199.439 67.177,198.810 67.957 C 197.431 69.667,197.439 69.429,198.720 70.703 C 199.299 71.279,200.291 72.350,200.923 73.083 C 201.556 73.817,203.201 75.574,204.578 76.987 C 207.703 80.194,208.294 80.813,208.905 81.519 C 210.429 83.279,213.784 86.898,214.747 87.821 C 215.362 88.409,216.599 89.722,217.496 90.737 C 218.393 91.753,219.369 92.808,219.664 93.083 C 219.959 93.358,220.811 94.296,221.557 95.167 C 222.304 96.037,223.009 96.850,223.125 96.971 C 223.547 97.415,223.714 97.918,223.714 98.744 C 223.714 100.088,223.272 100.789,220.508 103.833 C 218.784 105.732,215.740 109.292,215.051 110.215 C 214.850 110.485,214.286 111.128,213.798 111.644 C 213.310 112.161,212.782 112.771,212.625 113.000 C 212.248 113.550,211.629 114.256,209.846 116.167 C 209.034 117.037,207.973 118.275,207.489 118.917 C 207.005 119.558,206.026 120.683,205.314 121.417 C 202.802 124.004,201.639 125.833,202.506 125.833 C 202.589 125.833,202.958 126.242,203.327 126.742 C 203.697 127.242,204.768 128.462,205.708 129.454 C 206.648 130.445,208.354 132.265,209.500 133.498 C 213.424 137.718,214.878 139.253,217.244 141.667 C 218.546 142.996,220.069 144.646,220.628 145.333 C 221.187 146.021,222.478 147.437,223.496 148.481 C 226.559 151.619,227.333 152.764,227.333 154.150 C 227.333 155.001,226.607 156.729,225.965 157.403 C 225.175 158.233,223.562 160.067,223.000 160.774 C 220.476 163.948,219.928 164.833,220.330 165.081 C 220.487 165.178,220.356 165.833,220.181 165.833 C 220.118 165.833,219.982 165.749,219.880 165.646 C 219.575 165.342,217.761 167.302,215.232 170.667 C 214.509 171.629,213.467 172.971,212.917 173.647 C 210.677 176.404,210.523 176.664,211.125 176.669 C 221.122 176.764,315.429 176.616,315.497 176.506 C 315.549 176.420,315.573 175.128,315.548 173.633 C 315.524 172.139,315.503 170.644,315.502 170.311 L 315.500 169.704 314.375 169.505 C 310.853 168.879,306.157 165.998,304.371 163.365 C 301.534 159.185,300.365 153.660,301.419 149.417 C 301.894 147.505,303.805 143.737,304.715 142.918 C 304.919 142.734,305.739 141.865,306.538 140.986 C 308.068 139.303,308.763 138.853,311.543 137.745 C 312.163 137.499,312.709 137.232,312.758 137.154 C 312.874 136.966,311.649 135.855,310.774 135.355 C 310.394 135.138,309.896 134.831,309.667 134.673 C 309.083 134.271,308.158 133.833,307.891 133.833 C 307.768 133.833,307.667 133.758,307.667 133.667 C 307.667 133.575,307.590 133.500,307.496 133.500 C 306.714 133.500,304.019 131.151,303.571 130.079 C 302.647 127.868,303.478 126.679,307.731 124.128 C 310.945 122.201,312.519 121.074,312.404 120.784 C 312.361 120.674,311.521 120.062,310.538 119.425 C 309.554 118.788,308.375 117.992,307.917 117.656 C 307.458 117.321,306.671 116.832,306.167 116.571 C 302.426 114.629,302.133 111.698,305.472 109.622 C 306.145 109.204,307.032 108.575,307.445 108.223 C 307.857 107.871,308.561 107.387,309.009 107.148 C 309.457 106.908,309.775 106.664,309.717 106.606 C 309.659 106.548,309.755 106.500,309.932 106.500 C 310.239 106.500,312.233 105.298,312.415 105.002 C 312.588 104.723,311.053 103.603,309.256 102.697 C 308.801 102.468,308.276 102.136,308.089 101.960 C 307.903 101.783,307.250 101.346,306.640 100.987 C 301.544 97.997,302.052 94.960,308.167 91.868 C 309.513 91.188,310.662 90.505,311.417 89.937 C 311.783 89.661,312.106 89.421,312.134 89.403 C 312.162 89.386,312.196 89.221,312.210 89.037 C 312.229 88.776,312.436 88.656,313.159 88.485 C 314.146 88.251,315.167 87.737,315.167 87.474 C 315.167 87.386,315.241 87.359,315.331 87.415 C 315.511 87.526,315.376 87.040,315.142 86.735 C 315.066 86.635,315.052 86.503,315.113 86.443 C 315.173 86.383,314.987 86.333,314.699 86.333 C 314.162 86.333,311.374 85.260,309.570 84.358 C 309.013 84.080,308.453 83.829,308.327 83.801 C 308.065 83.743,307.923 83.647,307.326 83.122 C 307.093 82.918,306.680 82.562,306.409 82.332 C 306.138 82.102,305.729 81.641,305.500 81.309 C 305.271 80.977,304.768 80.291,304.382 79.786 C 302.643 77.507,301.669 75.423,301.331 73.261 C 301.154 72.125,301.084 67.923,301.231 67.229 C 301.272 67.035,301.352 66.586,301.408 66.232 C 301.574 65.188,303.514 61.214,304.491 59.917 C 306.728 56.947,310.245 54.866,314.613 53.926 C 315.501 53.735,315.510 53.687,315.461 49.479 L 315.417 45.583 266.500 45.572 C 239.596 45.566,217.304 45.589,216.963 45.623 M285.304 58.151 C 285.761 58.396,286.469 59.270,286.745 59.930 C 287.122 60.834,287.166 161.366,286.790 162.092 C 285.449 164.675,281.854 164.840,280.640 162.374 L 280.250 161.583 280.283 111.111 C 280.318 58.151,280.291 60.017,281.036 58.956 C 281.815 57.847,283.974 57.439,285.304 58.151" fill="#fab36b" fill-rule="evenodd"/>
    <path d="M80.250 39.534 C 78.366 40.191,78.313 40.482,78.369 49.860 L 78.417 57.803 78.934 58.443 C 79.799 59.512,80.287 59.702,82.559 59.849 C 85.545 60.043,87.286 60.719,89.126 62.401 C 96.220 68.885,91.793 80.293,82.167 80.335 C 78.793 80.349,78.281 81.192,78.363 86.598 C 78.430 90.997,78.324 90.792,81.588 92.833 C 88.404 97.096,88.058 96.852,87.722 97.162 C 87.378 97.480,84.367 99.384,81.694 100.974 C 78.703 102.753,78.333 103.177,78.333 104.825 C 78.333 106.632,78.124 106.454,86.326 111.642 C 88.266 112.869,88.240 112.815,87.208 113.462 C 86.773 113.735,85.367 114.616,84.083 115.420 C 78.693 118.795,78.705 118.785,78.346 120.119 C 77.874 121.874,78.565 122.806,81.833 124.820 C 84.780 126.636,87.993 128.728,87.996 128.833 C 87.998 128.911,84.597 131.091,82.625 132.276 C 78.295 134.878,78.417 134.711,78.417 138.072 C 78.417 141.669,79.208 142.663,82.074 142.669 C 91.335 142.689,96.053 153.945,89.574 160.559 C 87.658 162.515,85.639 163.392,82.237 163.748 C 78.212 164.168,78.297 163.947,78.366 173.750 L 78.417 180.917 78.820 181.513 C 79.042 181.841,79.473 182.272,79.776 182.471 L 80.329 182.833 133.375 182.833 C 184.638 182.833,186.441 182.823,187.003 182.525 C 187.590 182.214,189.251 180.221,194.250 173.832 C 197.884 169.187,198.246 168.727,200.955 165.320 C 202.309 163.617,203.877 161.629,204.440 160.903 C 205.002 160.177,206.134 158.721,206.954 157.667 C 209.816 153.989,209.782 153.828,205.066 148.800 C 203.406 147.031,201.531 145.008,200.899 144.304 C 199.803 143.083,198.289 141.455,193.414 136.250 C 191.409 134.109,186.212 128.498,184.277 126.385 C 183.305 125.323,183.195 125.636,185.417 123.128 C 186.425 121.990,187.850 120.355,188.583 119.495 C 189.317 118.635,190.298 117.516,190.763 117.008 C 191.229 116.499,192.010 115.596,192.498 115.000 C 192.986 114.404,194.330 112.836,195.485 111.515 C 199.957 106.396,201.458 104.665,202.583 103.332 C 203.225 102.571,204.028 101.637,204.367 101.256 C 205.094 100.440,205.333 99.881,205.333 99.000 C 205.333 97.731,205.850 98.353,196.257 88.075 C 193.694 85.330,190.319 81.731,188.757 80.078 C 183.304 74.307,179.083 69.793,179.040 69.684 C 179.017 69.624,179.863 68.463,180.920 67.104 C 181.978 65.745,184.128 62.934,185.698 60.858 C 187.267 58.782,188.829 56.746,189.167 56.333 C 189.505 55.921,191.120 53.821,192.756 51.667 C 194.392 49.512,196.326 46.968,197.054 46.012 C 199.530 42.762,199.612 40.955,197.337 39.792 L 196.440 39.333 138.595 39.346 C 98.805 39.356,80.594 39.414,80.250 39.534 M213.583 39.584 C 212.691 39.899,212.815 39.755,206.753 47.583 C 205.398 49.333,204.331 50.693,200.467 55.596 C 199.523 56.795,197.775 59.035,196.583 60.573 C 195.392 62.112,193.574 64.458,192.543 65.786 C 190.093 68.944,189.887 69.684,190.992 71.353 C 191.510 72.134,196.907 78.017,201.908 83.250 C 208.386 90.030,216.334 98.654,216.331 98.901 C 216.330 99.001,215.571 99.946,214.645 101.000 C 213.718 102.054,212.575 103.373,212.105 103.931 C 210.070 106.347,205.112 112.083,200.225 117.674 C 198.562 119.577,196.630 121.820,195.934 122.657 L 194.667 124.179 194.667 125.231 C 194.667 126.717,194.262 126.210,202.255 134.750 C 203.542 136.125,205.412 138.150,206.412 139.250 C 208.623 141.685,215.980 149.604,218.191 151.931 C 220.563 154.428,220.568 153.960,218.137 156.940 C 217.250 158.027,215.035 160.792,213.214 163.083 C 211.394 165.375,208.709 168.750,207.249 170.583 C 200.710 178.794,200.495 179.116,200.732 180.381 C 200.881 181.175,201.673 182.219,202.381 182.555 C 202.925 182.813,207.172 182.833,261.376 182.833 L 319.784 182.833 320.350 182.452 C 320.662 182.242,321.098 181.741,321.320 181.339 L 321.724 180.608 321.711 173.762 C 321.704 169.997,321.691 166.647,321.682 166.316 C 321.648 165.000,320.268 163.841,318.730 163.836 C 304.431 163.790,303.519 143.642,317.773 142.686 C 321.010 142.468,321.699 141.664,321.696 138.107 C 321.694 135.229,321.473 134.790,319.376 133.488 C 318.665 133.047,317.183 132.112,316.083 131.412 C 314.983 130.711,313.603 129.835,313.016 129.466 L 311.949 128.793 314.016 127.460 C 315.153 126.727,317.168 125.442,318.494 124.605 C 322.091 122.335,322.748 120.832,320.982 118.916 C 320.288 118.163,320.185 118.093,315.118 114.920 C 313.395 113.841,312.014 112.874,312.047 112.771 C 312.081 112.668,314.051 111.373,316.426 109.893 C 321.407 106.789,321.553 106.650,321.637 104.935 C 321.713 103.376,321.388 102.889,319.498 101.727 C 318.720 101.249,316.846 100.069,315.333 99.106 C 313.821 98.142,312.452 97.304,312.292 97.242 C 311.692 97.013,312.359 96.532,318.167 93.009 C 319.971 91.914,320.710 91.365,321.083 90.841 L 321.583 90.139 321.634 86.474 C 321.709 81.089,321.370 80.569,317.625 80.320 C 313.384 80.038,310.383 78.174,308.509 74.658 C 304.994 68.064,310.052 59.849,317.636 59.836 C 319.484 59.833,320.464 59.425,321.164 58.369 L 321.667 57.610 321.667 49.716 C 321.667 40.435,321.670 40.452,319.917 39.647 C 319.008 39.230,214.759 39.168,213.583 39.584 M188.781 47.304 C 187.847 48.479,186.711 49.923,186.256 50.512 C 181.974 56.055,177.873 61.393,176.150 63.667 C 175.004 65.179,173.707 66.878,173.269 67.441 C 171.393 69.856,171.706 70.493,178.094 77.259 C 183.062 82.520,190.421 90.378,192.597 92.744 C 193.689 93.932,195.465 95.832,196.543 96.966 L 198.502 99.028 198.153 99.472 C 197.720 100.023,195.110 103.027,185.911 113.562 C 174.890 126.184,175.302 125.272,178.882 129.114 C 179.726 130.020,182.029 132.517,184.000 134.663 C 190.597 141.847,196.293 148.006,199.250 151.153 C 201.470 153.516,202.093 154.321,201.907 154.584 C 201.821 154.706,200.882 155.919,199.821 157.278 C 198.761 158.638,197.486 160.281,196.988 160.930 C 196.490 161.579,194.436 164.166,192.423 166.680 C 190.409 169.193,188.234 171.933,187.589 172.767 C 186.944 173.601,185.895 174.933,185.258 175.726 L 184.099 177.167 134.091 177.125 L 84.083 177.083 84.039 173.296 L 83.994 169.508 84.455 169.407 C 88.871 168.442,91.481 167.062,94.032 164.347 C 102.587 155.240,98.359 140.949,86.009 137.225 C 85.760 137.149,87.281 136.130,91.197 133.750 C 95.797 130.954,96.332 130.441,96.333 128.825 C 96.334 127.075,96.070 126.833,90.250 123.244 C 88.508 122.170,86.973 121.188,86.839 121.062 C 86.545 120.786,86.345 120.939,90.250 118.439 C 91.808 117.441,93.667 116.240,94.380 115.771 C 96.835 114.154,97.149 112.145,95.204 110.491 C 94.615 109.989,87.898 105.708,86.870 105.179 C 86.346 104.909,86.319 104.932,89.421 102.987 C 93.906 100.175,95.113 99.349,95.717 98.682 C 97.166 97.077,96.418 95.037,93.833 93.549 C 93.329 93.259,91.942 92.418,90.750 91.680 C 89.558 90.942,87.593 89.756,86.382 89.044 L 84.181 87.750 84.174 86.875 C 84.168 86.129,84.212 86.000,84.479 86.000 C 87.998 86.000,93.408 82.629,95.850 78.916 C 102.159 69.320,96.146 55.479,85.127 54.232 L 84.167 54.124 84.167 49.645 L 84.167 45.167 137.323 45.167 L 190.479 45.167 188.781 47.304 M315.833 49.647 L 315.833 54.128 314.875 54.248 C 311.827 54.629,308.140 56.603,305.893 59.058 C 297.337 68.407,302.032 83.164,314.407 85.820 L 315.750 86.108 315.798 86.929 L 315.847 87.750 313.715 89.021 C 303.515 95.105,303.667 94.986,303.667 96.918 C 303.667 98.349,304.305 98.999,307.917 101.251 C 310.581 102.911,313.500 104.814,313.500 104.890 C 313.500 104.926,312.506 105.579,311.292 106.340 C 309.002 107.775,306.891 109.125,305.366 110.129 C 303.273 111.507,303.022 114.081,304.864 115.276 C 305.168 115.473,306.842 116.527,308.583 117.618 C 312.637 120.157,313.493 120.723,313.497 120.867 C 313.501 121.023,311.716 122.169,308.167 124.291 C 303.685 126.970,302.864 128.125,304.011 130.144 C 304.443 130.906,312.484 136.326,314.102 136.947 C 314.508 137.103,314.352 137.293,313.722 137.411 C 309.204 138.258,304.053 143.085,302.334 148.082 C 299.289 156.933,305.207 167.317,314.333 169.136 L 315.917 169.452 315.917 173.268 L 315.917 177.083 262.875 177.125 C 233.702 177.148,209.833 177.103,209.833 177.025 C 209.833 176.782,210.814 175.499,215.844 169.167 C 219.812 164.170,221.887 161.543,222.750 160.423 C 223.300 159.710,224.372 158.349,225.132 157.401 C 228.004 153.814,228.013 153.839,221.349 146.748 C 220.744 146.104,218.900 144.117,217.250 142.331 C 215.600 140.545,213.500 138.295,212.583 137.333 C 211.077 135.750,207.485 131.898,205.514 129.750 C 205.094 129.292,204.019 128.141,203.125 127.192 C 202.231 126.243,201.500 125.406,201.500 125.332 C 201.500 125.178,203.036 123.313,204.586 121.583 C 205.162 120.942,206.446 119.475,207.441 118.324 C 208.436 117.173,210.065 115.298,211.061 114.157 C 218.289 105.881,222.868 100.458,223.103 99.895 C 223.762 98.318,222.571 96.424,218.147 92.017 C 217.816 91.687,215.418 89.129,212.819 86.333 C 210.220 83.537,206.779 79.861,205.172 78.164 C 199.613 72.293,197.167 69.655,197.173 69.536 C 197.176 69.470,197.795 68.622,198.548 67.651 C 199.301 66.679,200.663 64.917,201.576 63.734 C 203.074 61.792,205.369 58.845,210.241 52.604 C 211.163 51.424,212.217 50.064,212.583 49.583 C 212.950 49.102,213.874 47.911,214.638 46.937 L 216.025 45.167 265.929 45.167 L 315.833 45.167 315.833 49.647 M115.000 58.540 C 114.493 58.810,114.118 59.178,113.842 59.673 L 113.435 60.407 113.476 110.893 C 113.516 159.569,113.528 161.401,113.824 161.982 C 115.183 164.643,118.896 163.937,119.247 160.950 C 119.303 160.473,119.326 137.658,119.299 110.250 L 119.250 60.417 118.880 59.725 C 118.134 58.329,116.392 57.798,115.000 58.540 M282.333 58.465 C 282.012 58.641,281.525 59.102,281.250 59.490 L 280.750 60.195 280.750 110.902 L 280.750 161.608 281.197 162.284 C 282.496 164.245,285.448 164.002,286.341 161.860 C 286.710 160.973,286.543 60.404,286.170 59.674 C 285.485 58.330,283.642 57.749,282.333 58.465" fill="#1f4464" fill-rule="evenodd"/>
    <path d="M266.044 39.286 C 266.297 39.325,266.672 39.324,266.877 39.284 C 267.082 39.244,266.875 39.213,266.417 39.214 C 265.958 39.216,265.791 39.248,266.044 39.286 M320.083 39.694 C 320.267 39.796,320.570 40.000,320.758 40.148 C 320.946 40.296,320.888 40.210,320.630 39.958 C 320.372 39.706,320.069 39.502,319.956 39.505 C 319.843 39.508,319.900 39.593,320.083 39.694 M78.244 49.500 C 78.244 53.762,78.265 55.506,78.292 53.375 C 78.318 51.244,78.318 47.756,78.292 45.625 C 78.265 43.494,78.244 45.237,78.244 49.500 M321.744 49.667 C 321.744 54.021,321.765 55.802,321.792 53.625 C 321.818 51.448,321.818 47.885,321.792 45.708 C 321.765 43.531,321.744 45.313,321.744 49.667" fill="#8ccce7" fill-rule="evenodd"/>
    <path d="M214.638 46.937 C 213.874 47.911,212.950 49.102,212.583 49.583 C 212.217 50.064,211.163 51.424,210.241 52.604 C 205.369 58.845,203.074 61.792,201.576 63.734 C 200.663 64.917,199.301 66.679,198.548 67.651 C 197.795 68.622,197.176 69.470,197.173 69.536 C 197.167 69.655,199.613 72.293,205.172 78.164 C 206.779 79.861,210.220 83.537,212.819 86.333 C 215.418 89.129,217.816 91.687,218.147 92.017 C 222.571 96.424,223.762 98.318,223.103 99.895 C 222.868 100.458,218.289 105.881,211.061 114.157 C 210.065 115.298,208.436 117.173,207.441 118.324 C 206.446 119.475,205.162 120.942,204.586 121.583 C 203.036 123.313,201.500 125.178,201.500 125.332 C 201.500 125.406,202.231 126.243,203.125 127.192 C 204.019 128.141,205.094 129.292,205.514 129.750 C 207.485 131.898,211.077 135.750,212.583 137.333 C 213.500 138.295,215.600 140.545,217.250 142.331 C 218.900 144.117,220.744 146.104,221.349 146.748 C 228.013 153.839,228.004 153.814,225.132 157.401 C 224.372 158.349,223.300 159.710,222.750 160.423 C 221.870 161.565,218.846 165.392,215.841 169.167 C 211.663 174.415,209.998 176.615,210.039 176.832 C 210.083 177.055,215.957 177.083,263.002 177.083 L 315.917 177.083 315.917 173.268 L 315.917 169.452 314.333 169.136 C 307.463 167.767,301.976 161.263,301.548 153.985 C 301.132 146.892,305.941 139.937,312.833 137.664 C 313.429 137.468,313.977 137.249,314.050 137.179 C 314.123 137.108,312.510 136.014,310.466 134.747 C 304.166 130.841,303.667 130.401,303.667 128.761 C 303.667 127.209,304.243 126.636,308.167 124.291 C 312.187 121.887,313.226 121.199,313.268 120.909 C 313.311 120.619,312.543 120.081,308.417 117.507 C 304.204 114.880,304.344 114.981,303.989 114.298 C 303.198 112.779,303.713 111.217,305.366 110.129 C 306.896 109.122,309.009 107.770,311.181 106.410 C 312.334 105.688,313.278 105.001,313.278 104.883 C 313.278 104.689,311.631 103.580,307.500 100.989 C 304.310 98.988,303.667 98.305,303.667 96.918 C 303.667 94.986,303.515 95.105,313.715 89.021 L 315.847 87.750 315.798 86.929 L 315.750 86.108 314.407 85.820 C 302.032 83.164,297.337 68.407,305.893 59.058 C 308.140 56.603,311.827 54.629,314.875 54.248 L 315.833 54.128 315.833 49.647 L 315.833 45.167 265.929 45.167 L 216.025 45.167 214.638 46.937" fill="#eabc8c" fill-rule="evenodd"/>
  </g>
</svg>
